<?xml version="1.0" encoding="utf-8"?>
<!-- Generator: Adobe Illustrator 23.0.1, SVG Export Plug-In . SVG Version: 6.00 Build 0)  -->
<svg version="1.1" id="Calque_1" xmlns="http://www.w3.org/2000/svg" xmlns:xlink="http://www.w3.org/1999/xlink" x="0px" y="0px"
	 viewBox="0 0 1280 1024" style="enable-background:new 0 0 1280 1024;" xml:space="preserve">
<style type="text/css">
	.st0{fill:#FFFFFF;}
	.st1{fill:#C1D344;}
</style>
<path class="st0" d="M838.88,73.85l-10.47-2.13c-2.59-0.53-5.26,0.4-6.96,2.42l-23.06,27.38l-6.06,8.11l3.09-7.86
	c0,0,4.98-11.3,4.98-14.33s-1.8-9.16-4.8-7.92c-1.17,0.48-2.99,5.16-5.12,7.95c-3.35,4.38-7.29,7.9-9.3,12.27
	c-3.3,7.14-15.75,45.87-15.76,45.9l0,0c-1.96,8.81-17.8,29.87-21.72,34.27c-3.91,4.4-83.11,73.71-93.88,94.26
	c-10.76,20.55-11.74,23.48-25.44,34.24c-13.7,10.76-73.38,57.72-82.18,65.55c-8.81,7.83-25.44,11.74-35.22,20.54
	c-9.78,8.81-29.35,22.5-29.35,22.5l-22.5,13.7l2.93-19.57c2.94-0.98,14.68-13.7,22.5-32.29c7.83-18.59,16.36-46.63,17.34-56.41
	c0.98-9.78,0.27-33.6,4.18-38.49c3.91-4.89-3.91-33.27-27.39-41.09c-23.48-7.83-43.27-4.99-51.01,1.07
	c-12.07,9.46-31.17,15.56-40.96,37.08c-9.78,21.52-9.78,45.98-9.78,45.98s-5.5-3.45-7.02,9.31c-0.84,7.07,12.89,39.61,15.83,42.54
	c2.93,2.93-1.96,65.55-1.96,65.55S337.72,453.2,280,475.7s-116.42,43.05-116.42,43.05s-0.98-12.72-11.74-38.16
	c-10.76-25.44-5.87-118.38-5.87-118.38l8.81-27.39l-6.09-25.87l16.53-20.57l11.59-20.63l81.08-100.8
	c11.44,7.63,23.52,11.49,35.97,11.49c23.38,0,47.6-14.11,68.19-39.71c15-18.64,23.67-40.97,24.4-62.86
	c0.76-22.59-7.03-41.65-21.97-53.64C354.31,14.02,341.36,9.7,327.03,9.7c-27,0-56.05,15.27-75.83,39.86
	c-32.24,40.1-34.06,80.05-5.24,107.8l-80.55,100.23l-18.73,16.87l-17.47,21.72c-6.37-1.64-12.31-2.73-13.57-1.47
	c-2.94,2.93-2.94,8.81-2.94,8.81s-7.83,0-8.8,4.89c-0.98,4.89-0.98,8.81-0.98,8.81s-7.83,7.83-7.83,11.74v9.6
	c-2,1.45-6.36,5.22-6.84,11.01c0.03,0.56,0.43,5.6,5.28,9.48c3.51,2.83,7.09,3.25,8.9,3.25l2.16-0.26c1.41-0.44,2.59-1.18,3.64-2.04
	c-1.99,19.93-8.97,90.29-13.14,135.29c-4.89,52.83,0,79.25,3.91,85.12c3.91,5.87,79.25,1.96,79.25,1.96l4.89,9.78l89.03-12.72
	l42.17,110.55v43.12l162.73,74.94c0.36-2.21,0.77-4.62,1.24-7.4c1.55-9.03,3.62-20.63,5.68-32.44c4.13-23.57,8.26-48.21,8.24-54.41
	l-0.01-0.25c-2.58-2.21-26.14-22.69-26.22-50.87c0.01-14.29,4.89-32.1,9.99-46.81c5.12-14.74,10.36-26.16,11.44-27.97l0.16-0.17
	l-0.01,0l0.1-0.35l0.35-1.64c0.29-1.4,0.69-3.31,1.32-5.38c1.26-4.13,3.38-8.99,7.62-11.75c3.53-2.27,10.71-8.81,16.99-15.88
	c6.31-7.02,11.78-14.9,12.21-19c0.83-6.43,4.16-10.99,6.6-13.56l-26.35-0.86c-0.03,0-7.09-0.24-15.26-1.28
	c-8.19-1.08-17.37-2.78-22.16-6.27c-1.3-0.97-3.14-1.43-5.65-1.43c-8.47-0.05-23.29,5.33-42.93,5.35c-4.52,0-9.29-0.28-14.32-0.99
	c-10.95-1.53-18.12-2.04-22.75-2.04c-4.73-0.01-6.83,0.56-7.49,0.91l0.11,0.43l-0.95,0.53c-3.87,2.17-8.23,6.58-10.04,9.35
	c-0.98,1.49-3.14,4.85-5.25,8.06c-2.13,3.24-4.13,6.25-5.09,7.36c-1.18,1.27-3.17,2.32-5.34,2.39l-2.69-1.02
	c-0.78-0.77-1.13-1.89-1.12-3.15l0.34-2.48c0.88-3.66,1.65-5.83,2.16-7.42c0.51-1.6,0.75-2.5,0.75-4.04l0.04-1.1l-0.34-2.03
	l-1.1-0.69c-4.5-0.09-12.09-0.87-18.87-1.62c-6.73-0.75-12.85-1.49-13.68-1.48l0-0.11l0,0.11l-2.12,0.08
	c-11.32,0.02-15.3-7.02-15.63-10.53l-0.01,0l-0.01-0.08c0-0.02-0.01-0.05-0.01-0.07l0.01,0l-0.02-0.18l0.92-2.49
	c0.53-0.86,1.28-1.85,2.24-2.93c1.93-2.16,4.72-4.7,8.3-7.15c7.16-4.89,17.52-9.39,30.27-9.39l2.39,0.05
	c4.26,0.19,10,0.71,17.63,0.71c8.01,0,18.1-0.58,30.62-2.75c12.23-2.12,27.97-5.83,40.64-9.01c12.67-3.18,22.24-5.81,22.26-5.82
	l0.13-0.04l0.13-0.01c0.02,0,9.86-0.78,20.02-1.62c9.77-0.8,19.93-1.67,21.49-1.89l2.47-1.41l1.8-6.92l36.21-3.72
	c1.08-0.42,16.72-6.44,35.12-6.45c5.74,0,11.73,0.59,17.62,2.16l0.38,0.1c30.21-51.94,67.88-106.97,91.53-118.32
	c35.24-16.92,70.44-84.14,87.07-115.45c16.63-31.31,16.63-31.31,16.63-31.31s10.67-6.76,21.82-13.44
	c12.76-7.65,23.81-17.85,32.44-29.98l0.69-0.97c10.32-10.17,13.93-48.93,13.93-48.93C851.29,86.73,845.76,77.74,838.88,73.85z
	 M102.42,357.49v-0.02h0L102.42,357.49z"/>
<path class="st1" d="M1179.77,639.61c-37.35-59.91-93.22-22.71-127.33,17.95c-34.11,40.66-20.37,46.81-45.84,61.85
	s-80.52,32.74-80.52,32.74l-1.45-2.18c-1.7-6.06-8.97-1.94-22.31-4.12c-13.34-2.18-32.26-22.8-45.36-40.75
	c-13.1-17.95-32.99-45.11-38.56-51.18c-5.58-6.06-37.11-30.56-43.9-63.06c-6.79-32.5-29.35-46.33-32.02-54.09
	c-2.67-7.76-28.38-40.26-28.38-40.26c4.61-2.91,9.46-12.13,9.46-12.13l3.88,0.24c10.19,0.73,13.58-24.34,13.58-24.34
	s0.73,1.3,9.22-27.56c8.49-28.86-19.65-39.78-19.65-39.78s-14.07-16.74-34.44-11.64c-20.37,5.09-37.35,38.08-37.35,38.08
	l-1.21,15.77l-3.88,23.77c-13.71-0.96-40.55-3.13-65.36-10.03l-0.21,0.36c-24.45,42.12-43.89,82.22-46.47,94.14v291.1l3.86-5.45
	l8-0.48c0,0,0.49-13.58,4.61-19.4c4.12-5.82,7.28-17.71,7.28-17.71l10.19,10.67l29.59-26.19c7.28,2.67,12.13,12.37,12.13,12.37
	s-6.31,6.31-20.86,26.92c-14.55,20.62-25.71,97.99-30.08,117.15c-4.37,19.16-10.19,19.89-10.19,19.89c-3.15-2.91-9.46,5.82-9.7,7.28
	c-0.24,1.46-6.79,8.73-6.79,8.73l-0.45,29.69h132.53c0.47-0.99,0.83-2.02,0.83-3.25c0-11.64-21.83-12.13-21.83-12.13l-37.35-25.22
	l-8.49-12.85l-1.94-8c0,0-1.21-2.18,2.18-15.04c3.4-12.85,59.91-103.32,75.67-130.49c15.77-27.16-7.76-48.99-14.79-56.75
	c-7.03-7.76-58.7-58.64-58.7-58.64c23.04-63.24,94.11-75.49,103.57-75.73c9.46-0.24,23.77,28.13,23.77,28.13
	c8.49,25.95,40.5,45.6,57.48,73.73c16.98,28.13,62.09,47.05,72.76,54.33c10.67,7.28,14.79,17.95,14.79,17.95l-10.91,6.55
	c-0.48,4.37,7.64,16.73,7.64,16.73l13.95-7.03c0,0,3.4,1.45,7.03,4.37c3.64,2.91,6.31-3.15,8.97-2.91c2.67,0.24,7.52-3.15,10.43-3.4
	c2.91-0.24,4.61-5.82,11.89-5.09c7.28,0.73,7.03-14.55,7.03-14.55s35.41-19.16,55.54-30.56c20.13-11.4,26.44-9.22,47.3-6.06
	c20.86,3.15,58.21,3.15,85.62-2.18C1151.63,724.5,1217.12,699.52,1179.77,639.61z"/>
</svg>
